# xmcd
#
# Track frame offsets:
#	150
#	17065
#	34041
#	51117
#	66345
#	81835
#	99426
#	116767
#	132837
#	149207
#	167552
#	186694
#	205478
#
# Disc length: 2991 seconds
#
# Revision: 5
# Processed by: cddbd v1.5.2PL0 Copyright (c) Steve Scherf et al.
# Submitted via: dBpowerAMP V4.0
#
DISCID=c50bad0d
DTITLE=Καίτη Γαρμπή - Απλά τα πράγματα [CD 2)
DYEAR=2001
DGENRE=Folklore
TTITLE0=Δεν είπα ψέματα ποτέ (μόνο για σένα)
TTITLE1=Στο σκονισμένο σου αμάξι
TTITLE2=Ζητάς
TTITLE3=Όσο θα λείπεις
TTITLE4=Θέλω να σε βλέπω
TTITLE5=Φίλα με
TTITLE6=Μόνη μου
TTITLE7=Κάνε το λογαριασμό
TTITLE8=Στάχτη
TTITLE9=Βάλε
TTITLE10=Στιγμές
TTITLE11=Επανάσταση
TTITLE12=Θέλουνε τα μάτια σου
EXTD=
EXTT0=
EXTT1=
EXTT2=
EXTT3=
EXTT4=
EXTT5=
EXTT6=
EXTT7=
EXTT8=
EXTT9=
EXTT10=
EXTT11=
EXTT12=
PLAYORDER=
